<?xml version="1.0" encoding="UTF-8" standalone="no"?>
<svg
   xmlns:dc="http://purl.org/dc/elements/1.1/"
   xmlns:cc="http://creativecommons.org/ns#"
   xmlns:rdf="http://www.w3.org/1999/02/22-rdf-syntax-ns#"
   xmlns:svg="http://www.w3.org/2000/svg"
   xmlns="http://www.w3.org/2000/svg"
   id="svg249"
   version="1.1"
   viewBox="0 0 1000 1000"
   height="1000"
   width="1000">
  <defs
     id="defs243" />
  <metadata
     id="metadata246">
    <rdf:RDF>
      <cc:Work
         rdf:about="">
        <dc:format>image/svg+xml</dc:format>
        <dc:type
           rdf:resource="http://purl.org/dc/dcmitype/StillImage" />
        <dc:title></dc:title>
      </cc:Work>
    </rdf:RDF>
    <rdf:RDF>
      <cc:Work
         rdf:about="">
        <dc:title></dc:title>
      </cc:Work>
    </rdf:RDF>
  </metadata>
  <g
     transform="translate(0,213.78333)"
     style="display:inline"
     id="layer5">
    <path
       id="path5456"
       d="m 258.27583,-128.42874 a 44.357604,44.357604 0 0 0 -31.39778,75.957539 l 78.35747,79.387385 V 177.50836 a 44.357604,44.357604 0 0 0 0.32125,5.60302 v 3.29758 H 201.99038 a 44.357604,44.357604 0 0 0 -5.055,0.24564 h -4.72433 L 128.49897,125.72972 A 44.357597,44.357597 0 0 0 96.392528,113.0213 44.357597,44.357597 0 0 0 67.215178,189.86698 l 43.038482,41.13003 -43.038482,41.14878 a 44.357597,44.357597 0 1 0 61.283792,64.09949 l 63.71208,-60.88696 h 122.19909 a 44.357597,44.357597 0 0 0 0.78422,-0.0283 h 15.96819 l 1.47398,1.47399 a 44.357604,44.357604 0 0 0 2.88185,3.12748 l 119.3078,118.95826 v 222.79856 a 44.357604,44.357604 0 0 0 45.42896,44.92822 44.357604,44.357604 0 0 0 44.418,-44.92822 v -222.7986 l 21.67513,-21.61846 a 44.357604,44.357604 0 0 0 0.25519,-0.23623 l 71.11037,-70.91197 26.27667,-26.19158 a 44.357604,44.357604 0 0 0 0.0471,-0.0472 l 24.19796,-24.13182 H 817.1904 a 44.357604,44.357604 0 1 0 0,-88.70367 H 713.30276 V 64.200478 A 44.357604,44.357604 0 0 0 668.30841,19.243913 44.357604,44.357604 0 0 0 624.59904,64.200478 V 192.65454 L 503.04246,313.88984 A 44.357604,44.357604 0 0 0 500,317.15909 L 394.26046,211.72185 v -27.36321 a 44.357604,44.357604 0 0 0 0.46296,-6.85026 V 26.916215 l 78.38579,-79.387383 a 44.357604,44.357604 0 0 0 -32.74894,-75.919722 44.357604,44.357604 0 0 0 -30.3868,13.60603 l -59.98932,60.783024 -59.99876,-60.783024 a 44.357604,44.357604 0 0 0 -31.70957,-13.64384 z"
       style="color:#000000;font-style:normal;font-variant:normal;font-weight:normal;font-stretch:normal;font-size:medium;line-height:normal;font-family:sans-serif;font-variant-ligatures:normal;font-variant-position:normal;font-variant-caps:normal;font-variant-numeric:normal;font-variant-alternates:normal;font-feature-settings:normal;text-indent:0;text-align:start;text-decoration:none;text-decoration-line:none;text-decoration-style:solid;text-decoration-color:#000000;letter-spacing:normal;word-spacing:normal;text-transform:none;writing-mode:lr-tb;direction:ltr;text-orientation:mixed;dominant-baseline:auto;baseline-shift:baseline;text-anchor:start;white-space:normal;shape-padding:0;clip-rule:nonzero;display:inline;overflow:visible;visibility:visible;opacity:1;isolation:auto;mix-blend-mode:normal;color-interpolation:sRGB;color-interpolation-filters:linearRGB;solid-color:#000000;solid-opacity:1;vector-effect:none;fill:none;fill-opacity:1;fill-rule:nonzero;stroke:#000000;stroke-width:4.83769655;stroke-linecap:round;stroke-linejoin:miter;stroke-miterlimit:4;stroke-dasharray:none;stroke-dashoffset:0;stroke-opacity:1;color-rendering:auto;image-rendering:auto;shape-rendering:auto;text-rendering:auto;enable-background:accumulate" />
  </g>
</svg>
